<svg width="50" height="32" viewBox="0 0 50 32" fill="none" xmlns="http://www.w3.org/2000/svg">
<g clip-path="url(#clip0_1859_23772)">
<path d="M6.00006 9.00195H2.11098C1.84485 9.00195 1.61852 9.1953 1.577 9.45802L0.00408279 19.4307C-0.0271937 19.6274 0.125207 19.8048 0.324808 19.8048H2.18149C2.44763 19.8048 2.67396 19.6115 2.71547 19.3482L3.13969 16.6584C3.18063 16.3951 3.40753 16.2018 3.67309 16.2018H4.90425C7.46607 16.2018 8.9446 14.9621 9.33072 12.5055C9.50473 11.4307 9.33811 10.5862 8.83485 9.99484C8.28211 9.34543 7.30173 9.00195 6.00006 9.00195ZM6.44874 12.6442C6.23606 14.0397 5.16981 14.0397 4.13883 14.0397H3.55197L3.96368 11.4336C3.98813 11.276 4.12461 11.16 4.28384 11.16H4.55282C5.25511 11.16 5.91761 11.16 6.25994 11.5604C6.46409 11.7992 6.52664 12.1541 6.44874 12.6442Z" fill="#253B80"/>
<path d="M17.625 12.5979H15.7626C15.6039 12.5979 15.4669 12.7139 15.4424 12.8714L15.36 13.3923L15.2298 13.2035C14.8266 12.6183 13.9275 12.4227 13.0302 12.4227C10.9722 12.4227 9.21445 13.9814 8.87212 16.1679C8.69413 17.2586 8.94718 18.3016 9.56589 19.0289C10.1334 19.6976 10.9455 19.9763 11.9116 19.9763C13.5698 19.9763 14.4894 18.91 14.4894 18.91L14.4063 19.4275C14.3751 19.6254 14.5275 19.8028 14.7259 19.8028H16.4035C16.6702 19.8028 16.8954 19.6095 16.9375 19.3462L17.944 12.9721C17.9758 12.7759 17.824 12.5979 17.625 12.5979ZM15.029 16.2225C14.8493 17.2865 14.0049 18.0007 12.9278 18.0007C12.387 18.0007 11.9548 17.8273 11.6773 17.4986C11.4021 17.1722 11.2975 16.7076 11.385 16.1901C11.5528 15.1353 12.4115 14.3977 13.472 14.3977C14.0009 14.3977 14.4308 14.5734 14.714 14.9049C14.9978 15.2399 15.1103 15.7073 15.029 16.2225Z" fill="#253B80"/>
<path d="M27.5438 12.5979H25.6724C25.4938 12.5979 25.326 12.6866 25.2248 12.835L22.6437 16.6371L21.5496 12.9835C21.4808 12.7549 21.2698 12.5979 21.0309 12.5979H19.1919C18.9684 12.5979 18.8132 12.8163 18.8842 13.0267L20.9456 19.0761L19.0076 21.8119C18.8552 22.0275 19.0088 22.3237 19.2721 22.3237H21.1413C21.3187 22.3237 21.4847 22.2373 21.5854 22.0917L27.81 13.1069C27.959 12.8919 27.806 12.5979 27.5438 12.5979Z" fill="#253B80"/>
<path d="M33.7404 9.00061H29.8508C29.5852 9.00061 29.3589 9.19396 29.3174 9.45668L27.7444 19.4293C27.7132 19.6261 27.8656 19.8035 28.064 19.8035H30.06C30.2454 19.8035 30.4041 19.6682 30.4331 19.4839L30.8795 16.6571C30.9204 16.3938 31.1473 16.2004 31.4129 16.2004H32.6435C35.2059 16.2004 36.6838 14.9608 37.0705 12.5041C37.2451 11.4294 37.0773 10.5849 36.5741 9.9935C36.0219 9.34408 35.0421 9.00061 33.7404 9.00061ZM34.1891 12.6429C33.977 14.0384 32.9107 14.0384 31.8792 14.0384H31.2929L31.7052 11.4322C31.7296 11.2747 31.865 11.1587 32.0248 11.1587H32.2937C32.9955 11.1587 33.6585 11.1587 34.0009 11.559C34.205 11.7979 34.267 12.1527 34.1891 12.6429Z" fill="#179BD7"/>
<path d="M45.3644 12.5979H43.5031C43.3433 12.5979 43.2074 12.7139 43.1835 12.8714L43.1011 13.3923L42.9703 13.2035C42.5671 12.6183 41.6686 12.4227 40.7713 12.4227C38.7133 12.4227 36.9561 13.9814 36.6138 16.1679C36.4364 17.2586 36.6883 18.3016 37.307 19.0289C37.8756 19.6976 38.6866 19.9763 39.6527 19.9763C41.3109 19.9763 42.2305 18.91 42.2305 18.91L42.1474 19.4275C42.1162 19.6254 42.2686 19.8028 42.4682 19.8028H44.1452C44.4107 19.8028 44.637 19.6095 44.6786 19.3462L45.6857 12.9721C45.7164 12.7759 45.564 12.5979 45.3644 12.5979ZM42.7684 16.2225C42.5899 17.2865 41.7443 18.0007 40.6672 18.0007C40.1276 18.0007 39.6942 17.8273 39.4167 17.4986C39.1415 17.1722 39.038 16.7076 39.1244 16.1901C39.2933 15.1353 40.1509 14.3977 41.2114 14.3977C41.7403 14.3977 42.1702 14.5734 42.4534 14.9049C42.7383 15.2399 42.8509 15.7073 42.7684 16.2225Z" fill="#179BD7"/>
<path d="M47.5599 9.2741L45.9637 19.4293C45.9324 19.626 46.0848 19.8035 46.2833 19.8035H47.8881C48.1548 19.8035 48.3811 19.6101 48.422 19.3468L49.9961 9.37475C50.0274 9.17799 49.875 9 49.6765 9H47.8795C47.7209 9.00057 47.5844 9.11658 47.5599 9.2741Z" fill="#179BD7"/>
</g>
<defs>
<clipPath id="clip0_1859_23772">
<rect width="50" height="32" fill="white"/>
</clipPath>
</defs>
</svg>
